<?xml version="1.0" encoding="UTF-8" standalone="no"?>
<svg
   xmlns:dc="http://purl.org/dc/elements/1.1/"
   xmlns:cc="http://creativecommons.org/ns#"
   xmlns:rdf="http://www.w3.org/1999/02/22-rdf-syntax-ns#"
   xmlns:svg="http://www.w3.org/2000/svg"
   xmlns="http://www.w3.org/2000/svg"
   id="svg8"
   version="1.1"
   viewBox="0 0 21.970259 13.405018"
   height="13.405018mm"
   width="21.970259mm">
  <defs
     id="defs2" />
  <metadata
     id="metadata5">
    <rdf:RDF>
      <cc:Work
         rdf:about="">
        <dc:format>image/svg+xml</dc:format>
        <dc:type
           rdf:resource="http://purl.org/dc/dcmitype/StillImage" />
        <dc:title></dc:title>
      </cc:Work>
    </rdf:RDF>
  </metadata>
  <g
     transform="translate(-41.003369,-53.397615)"
     id="layer1">
    <g
       id="text4520"
       style="font-style:normal;font-variant:normal;font-weight:normal;font-stretch:normal;font-size:10.58333302px;line-height:1.25;font-family:Carlito;-inkscape-font-specification:Carlito;letter-spacing:0px;word-spacing:0px;fill:#000000;fill-opacity:1;stroke:none;stroke-width:0.26458332"
       aria-label="Stylite">
      <path
         id="path4545"
         style="font-style:normal;font-variant:normal;font-weight:bold;font-stretch:normal;font-family:Garuda;-inkscape-font-specification:'Garuda Bold';fill:#aa0000;fill-opacity:1;stroke-width:0.26458332"
         d="m 50.378385,64.639471 1.799167,-6.212416 h -1.005417 l -1.037166,3.58775 -0.650183,-2.091321 h -1.217083 l 1.264016,4.017487 c -0.211667,0.941917 -0.624417,1.217084 -1.27,1.217084 -0.116417,0 -0.232834,-0.01058 -0.370417,-0.02117 l -0.01058,1.0795 0.6985,-0.04233 c 0.973666,-0.0635 1.534583,-0.656167 1.799166,-1.534584 z" />
      <path
         id="path4541"
         style="font-style:normal;font-variant:normal;font-weight:bold;font-stretch:normal;font-family:Garuda;-inkscape-font-specification:'Garuda Bold';fill:#aa0000;fill-opacity:1;stroke-width:0.26458332"
         d="m 41.339503,58.628138 c 0,1.524 1.100667,1.788583 2.38125,2.074333 0.582083,0.127 1.344083,0.370417 1.344083,1.217084 0,0.719666 -0.910166,1.016 -1.248833,1.016 -0.73025,0 -1.227667,-0.306917 -1.49225,-1.100667 -0.08467,0 -1.280583,0.381 -1.280583,0.381 0.359833,1.248833 1.407583,1.778 2.624666,1.778 1.4605,0 2.645834,-0.656167 2.645834,-2.38125 0,-1.830917 -2.159,-2.053166 -2.624667,-2.159 -0.878417,-0.1905 -1.100667,-0.497416 -1.100667,-1.058333 0,-0.687917 0.53975,-0.973667 1.090084,-0.973667 0.79375,0 1.037166,0.41275 1.227666,0.878417 l 1.259417,-0.423333 c -0.41275,-1.100667 -1.312333,-1.513417 -2.44475,-1.513417 -1.513417,0 -2.38125,0.931333 -2.38125,2.264833 z" />
      <path
         id="path4547"
         style="font-style:normal;font-variant:normal;font-weight:bold;font-stretch:normal;font-family:Garuda;-inkscape-font-specification:'Garuda Bold';fill:#aa0000;fill-opacity:1;stroke-width:0.26458332"
         d="m 52.443981,63.940971 h 1.132416 v -7.408333 h -1.132416 z" />
      <path
         id="path4549"
         style="font-style:normal;font-variant:normal;font-weight:bold;font-stretch:normal;font-family:Garuda;-inkscape-font-specification:'Garuda Bold';fill:#aa0000;fill-opacity:1;stroke-width:0.26458332"
         d="m 54.357296,63.940971 h 1.132417 v -5.513916 h -1.132417 z" />
      <path
         id="path4553"
         style="font-style:normal;font-variant:normal;font-weight:bold;font-stretch:normal;font-family:Garuda;-inkscape-font-specification:'Garuda Bold';fill:#aa0000;fill-opacity:1;stroke-width:0.26458332"
         d="m 59.597544,61.305721 h 3.376084 c 0,-1.27 -0.02117,-2.931583 -2.3495,-2.931583 -1.513417,0 -2.25425,1.11125 -2.25425,2.7305 0,1.629833 0.941917,2.88925 2.413,2.88925 1.629833,0 2.010833,-1.227667 2.180166,-1.7145 h -1.090083 c -0.116417,0.560917 -0.518583,0.804333 -1.005417,0.804333 -0.79375,0 -1.2065,-0.592666 -1.248833,-1.386416 z m 1.23825,-2.021416 c 0.550334,0 0.9525,0.254 1.005417,1.11125 h -2.169583 c 0.07408,-0.941917 0.592666,-1.11125 1.164166,-1.11125 z" />
      <path
         id="path4558"
         d="m 41.268598,64.839105 4.853886,2e-6"
         style="fill:#642154;fill-opacity:0.2539683;stroke:#aaabae;stroke-width:1.1153326;stroke-linecap:butt;stroke-linejoin:round;stroke-miterlimit:4;stroke-dasharray:none;stroke-opacity:1" />
      <path
         id="path4558-3"
         d="m 41.003369,66.244964 5.421583,2e-6"
         style="font-style:normal;font-variant:normal;font-weight:normal;font-stretch:normal;font-size:10.58333302px;line-height:1.25;font-family:Carlito;-inkscape-font-specification:Carlito;letter-spacing:0px;word-spacing:0px;fill:#642154;fill-opacity:0.2539683;stroke:#aaabae;stroke-width:1.11533272;stroke-linecap:butt;stroke-linejoin:round;stroke-miterlimit:4;stroke-dasharray:none;stroke-opacity:1;paint-order:normal" />
      <path
         id="path4549-5"
         style="font-style:normal;font-variant:normal;font-weight:bold;font-stretch:normal;font-size:10.58333302px;line-height:1.25;font-family:Garuda;-inkscape-font-specification:'Garuda Bold';letter-spacing:0px;word-spacing:0px;fill:#aa0000;fill-opacity:1;stroke:none;stroke-width:0.26458332"
         d="m 54.340612,57.637825 h 1.132417 v -1.105187 h -1.132417 z" />
      <path
         id="path4558-9"
         d="m 41.318795,55.494775 4.853886,2e-6"
         style="font-style:normal;font-variant:normal;font-weight:normal;font-stretch:normal;font-size:10.58333302px;line-height:1.25;font-family:Carlito;-inkscape-font-specification:Carlito;letter-spacing:0px;word-spacing:0px;fill:#642154;fill-opacity:0.2539683;stroke:#aaabae;stroke-width:1.1153326;stroke-linecap:butt;stroke-linejoin:round;stroke-miterlimit:4;stroke-dasharray:none;stroke-opacity:1" />
      <path
         id="path4558-3-1"
         d="m 41.016327,53.955281 5.421583,2e-6"
         style="font-style:normal;font-variant:normal;font-weight:normal;font-stretch:normal;font-size:10.58333302px;line-height:1.25;font-family:Carlito;-inkscape-font-specification:Carlito;letter-spacing:0px;word-spacing:0px;fill:#642154;fill-opacity:0.2539683;stroke:#aaabae;stroke-width:1.11533272;stroke-linecap:butt;stroke-linejoin:round;stroke-miterlimit:4;stroke-dasharray:none;stroke-opacity:1;paint-order:normal" />
      <path
         id="path4543-2"
         style="font-style:normal;font-variant:normal;font-weight:bold;font-stretch:normal;font-size:10.58333302px;line-height:1.25;font-family:Garuda;-inkscape-font-specification:'Garuda Bold';letter-spacing:0px;word-spacing:0px;fill:#aa0000;fill-opacity:1;stroke:none;stroke-width:0.26458332"
         d="m 47.991403,63.996907 0.0054,-2.062049 v -2.592916 h 1.504345 v -0.910167 h -1.504357 v -1.894417 h -1.132417 v 1.894417 h -1.566675 v 0.910167 h 1.566675 v 2.920999 c 0,0 0.0011,1.135417 0.0019,1.735667 z" />
      <path
         id="path4543-2-9"
         style="font-style:normal;font-variant:normal;font-weight:bold;font-stretch:normal;font-size:10.58333302px;line-height:1.25;font-family:Garuda;-inkscape-font-specification:'Garuda Bold';letter-spacing:0px;word-spacing:0px;fill:#aa0000;fill-opacity:1;stroke:none;stroke-width:0.26458332"
         d="m 57.516409,63.996907 0.0054,-2.062049 v -2.592916 h 1.06731 V 58.431775 H 57.521797 V 56.537358 H 56.38938 v 1.894417 h -1.566675 v 0.910167 h 1.566675 v 2.920999 c 0,0 0.0011,1.135417 0.0019,1.735667 z" />
    </g>
  </g>
</svg>
